# xmcd
#
# Track frame offsets:
#	150
#	12337
#	27876
#	41895
#	58825
#	76290
#	95267
#	111258
#	127655
#	139998
#
# Disc length: 2073 seconds
#
# Revision: 1
# Processed by: cddbd v1.5.2PL0 Copyright (c) Steve Scherf et al.
# Submitted via: audiograbber 1.83.01
#
DISCID=7f08170a
DTITLE=Michael Martin Murphey - Red River Drifter
DYEAR=2013
DGENRE=Country
TTITLE0=Peaceful Country
TTITLE1=Under A Rolling Sky
TTITLE2=Secret Smile
TTITLE3=Faded Blues
TTITLE4=Shake It Off
TTITLE5=Hardscrabble Creek
TTITLE6=Mountain Storm
TTITLE7=The Gathering
TTITLE8=New Old Love
TTITLE9=Unfinished Symphony
EXTD=
EXTT0=
EXTT1=
EXTT2=
EXTT3=
EXTT4=
EXTT5=
EXTT6=
EXTT7=
EXTT8=
EXTT9=
PLAYORDER=
